<?xml version="1.0" encoding="utf-8"?>
<!-- Generator: Adobe Illustrator 24.2.3, SVG Export Plug-In . SVG Version: 6.00 Build 0)  -->
<svg version="1.1" id="Layer_1" xmlns="http://www.w3.org/2000/svg" xmlns:xlink="http://www.w3.org/1999/xlink" x="0px" y="0px"
	 viewBox="0 0 200 200" style="enable-background:new 0 0 200 200;" xml:space="preserve">
<style type="text/css">
	.st0{fill:#010202;}
</style>
<g>
	<path class="st0" d="M169.91,73.6c0.02-3.26-0.13-6.53-0.55-9.77c-0.36-2.8-0.93-5.58-1.73-8.3c-0.69-2.36-1.56-4.68-2.57-6.92
		c-0.87-1.93-1.84-3.82-2.89-5.66c-0.85-1.49-1.74-2.96-2.67-4.4c-0.67-1.04-1.37-2.07-2.1-3.07c-0.46-0.63-0.92-1.24-1.44-1.82
		c-0.29-0.33-0.83-0.69-1.21-1.1c-0.24-0.26-0.42-0.55-0.42-0.87c0-0.57,0.46-1.03,1.03-1.03c0.34,0,0.96,0.48,1.24,0.66
		c0.4,0.26,0.77,0.56,1.11,0.9c0.75,0.73,1.41,1.56,2.04,2.39c1.23,1.62,2.27,3.41,3.22,5.21c0.3,0.57,0.59,1.18,0.84,1.78
		c0.21,0.52,0.4,1.09,1.07,1.09c0.47,0,0.93-0.37,0.93-0.85c-0.01-0.49-0.38-0.87-0.62-1.26c-0.27-0.43-0.5-0.88-0.75-1.32
		c-0.46-0.81-0.93-1.62-1.41-2.42c-0.92-1.53-1.88-3.03-2.93-4.47c-1.8-2.47-3.89-4.74-6.36-6.55c-1.9-1.39-4-2.49-6.2-3.31
		c-1.4-0.52-2.83-0.94-4.29-1.25c-0.64-0.14-1.28-0.25-1.94-0.32c-0.05-0.01-0.1-0.02-0.15-0.02c-15.93-1.32-21.77-5.7-21.77-5.7
		c-1.1-0.61-2.45-0.97-3.63-1.42c-4.84-1.88-9.73-3.69-14.77-4.98c-4.42-1.13-8.98-1.85-13.56-1.72c-4.07,0.12-8.1,0.93-11.9,2.41
		c-3.68,1.43-7.1,3.44-10.3,5.74c-3.17,2.28-6.12,4.85-8.92,7.56c-2.67,2.58-5.21,5.3-7.62,8.12c-2.18,2.56-4.26,5.21-6.18,7.97
		c-1.67,2.4-3.22,4.88-4.61,7.46c-2.12,3.93-4.26,8.3-5.41,12.63c-0.46,1.73-0.79,3.5-1.1,5.26c-1.05,6.13-1.69,12.32-1.08,18.53
		c0.72,7.35,2.74,14.55,4.82,21.62c1.93,6.55,4.04,13.07,6.66,19.38c1.41,3.39,2.99,6.71,4.65,9.99c0.41,0.82,0.62,2.45,1.81,2.45
		c0.99,0,1.19-0.8,1.11-1.62c-0.13-1.36-0.46-2.69-0.66-4.04c-0.19-1.26-0.36-2.53-0.51-3.79c-0.28-2.37-0.47-4.76-0.57-7.14
		c-0.14-3.32-0.14-6.66-0.06-9.99c0.01-0.58,0.04-1.16,0.08-1.74c0-2.21,0.03-4.41,0.07-6.62c0.05-2.58,0.1-5.2,0.37-7.77
		c0.15-1.41,0.15-2.88,0.69-4.22c0.43-1.07,1.17-1.97,1.62-3.03c0.67-1.54,1.08-3.26,1.1-4.94c0.05-4.14,0.43-8.35,1-12.45
		c0.27-1.95,0.59-3.89,0.9-5.83c0.28-1.73,0.44-3.53,1.2-5.13c0.25-0.51,0.97-0.81,1.31-0.21c0.17,0.31-0.15,0.97-0.23,1.26
		c-1.14,3.93-1.45,8.24-1.75,12.31c-0.09,1.18-0.16,2.36-0.22,3.54c-0.16,3.17-0.22,6.34-0.22,9.52c-0.01,2.57,0.02,5.14,0.06,7.71
		c0.02,1.01,0.08,2.01,0.09,3.02c0,0.65,0.18,1.41,1,1.41c0.54,0,0.99-0.44,0.99-0.99c0-0.05-0.02-0.1,0-0.15
		c0.07-1.13,0.37-2.3,0.57-3.41c0.19-1.13,0.4-2.26,0.62-3.38c0.44-2.21,0.96-4.42,1.61-6.58c1.25-4.18,3.01-8.18,5.2-11.96
		c2.01-3.46,4.33-6.73,6.77-9.9c1.88-2.44,3.83-4.82,5.86-7.14c1.33-1.51,2.7-2.97,4.12-4.4c0.42-0.43,0.81-0.88,1.47-0.88
		c1.18,0,1.59,1.18,1.26,2.14c-0.54,1.85-1.36,3.6-2.23,5.31c-1.01,1.98-2.15,3.89-3.33,5.78c-1.17,1.87-2.41,3.69-3.68,5.5
		c-1.06,1.51-2.14,3-3.26,4.47c-0.74,0.97-1.41,1.96-2.26,2.85c-0.42,0.44-0.94,0.77-0.94,1.44c0,0.73,0.59,1.31,1.31,1.32
		c0.44,0,1.34-0.8,1.7-1.04c0.75-0.5,1.47-1.04,2.18-1.59c1.34-1.02,2.67-2.05,3.96-3.13c1.23-1.03,2.43-2.09,3.56-3.23
		c0.77-0.77,1.45-1.64,2.1-2.52c0.49-0.66,1.05-1.85,2.01-1.85c0.53,0,0.98,0.31,1.19,0.78c0.45,0.99-0.39,2.61-0.72,3.55
		c-1.02,2.97-2.3,5.82-4.15,8.38c-2.15,2.98-4.59,5.57-7.57,7.73c-0.69,0.51-1.5,1.15-1.5,2.09c0,0.35,0.17,0.69,0.45,0.91
		c0.27,0.2,0.96,0.24,1.27,0.07c0.84-0.46,1.44-1.22,2.09-1.91c1.03-1.09,2.12-2.11,3.17-3.17c1.54-1.56,3.02-3.18,4.41-4.87
		c1.15-1.4,2.27-2.82,3.31-4.31c0.62-0.89,1.24-1.79,1.69-2.77c0.52-1.13,0.94-3.29,2.26-3.76c1.07-0.38,1.81,0.67,1.96,1.57
		c0.15,0.95-0.02,1.95-0.21,2.88c-0.44,2.12-1.05,4.28-1.96,6.24c-1.52,3.25-3.69,6.27-6.08,8.92c-0.25,0.28-0.52,0.54-0.78,0.82
		c-0.39,0.41-1.23,0.96-1.23,1.6c0,0.48,0.39,0.88,0.88,0.88c1.24,0,2.2-0.97,3.08-1.73c2.81-2.4,5.76-4.62,8.57-7.03
		c0.83-0.71,1.64-1.44,2.43-2.2c1.8-1.74,3.53-3.57,5.2-5.44c2.18-2.43,4.15-4.79,5.86-7.58c0.3-0.49,0.78-1.04,1.41-1.04
		c1.5,0,1.11,1.95,1.01,2.86c-0.37,3.58-1.67,6.72-3.56,9.75c-1.03,1.65-2.12,3.28-3.29,4.83c-0.76,1-1.5,2.02-2.34,2.96
		c-0.41,0.46-0.83,0.89-1.29,1.3c-0.32,0.28-0.78,0.54-0.78,1.03c0,0.48,0.39,0.88,0.88,0.88c0.63,0,1.25-0.62,1.73-0.97
		c0.66-0.47,1.34-0.9,1.98-1.39c1.2-0.92,2.3-1.97,3.36-3.05c1.41-1.44,2.81-2.89,4.07-4.46c0.62-0.78,1.21-1.58,1.72-2.43
		c0.36-0.6,0.74-1.66,1.6-1.64c2.17,0.06,0.01,4.15-0.44,5.03c-0.47,0.92-1.04,1.85-1.66,2.67c-1.19,1.58-2.5,3.07-3.89,4.47
		c-0.66,0.66-1.33,1.33-2.03,1.95c-0.62,0.54-3.84,2.32-2.31,3.51c0.91,0.71,2.52-0.69,3.32-1.08c1.61-0.79,3.19-1.64,4.77-2.5
		c0.86-0.47,1.71-0.94,2.57-1.41c2.76-1.51,5.48-3.1,8.1-4.84c2.03-1.34,4.01-2.77,5.93-4.27c1.27-0.99,2.51-2.02,3.73-3.08
		c0.54-0.47,1.06-0.95,1.57-1.45c0.4-0.38,0.89-1.11,1.5-1.11c1.8,0,0.15,2.47-0.3,3.07c-0.37,0.49-0.76,0.97-1.16,1.44
		c-0.79,0.92-1.65,1.78-2.55,2.61c-1.23,1.13-2.55,2.17-3.92,3.14c-0.69,0.49-1.4,0.96-2.11,1.42c-0.56,0.36-1.4,0.7-1.4,1.48
		c0,0.54,0.41,1.06,0.95,1.14c0.82,0.12,1.56-0.48,2.23-0.85c2.19-1.23,4.27-2.38,6.09-4.16c1.75-1.71,3.31-3.66,4.66-5.7
		c0.45-0.68,0.9-1.62,1.86-1.62c0.61,0,1.13,0.38,1.35,0.93c0.56,1.38-0.08,3.13-0.52,4.46c-1.11,3.41-3.07,6.35-5.51,8.96
		c-0.47,0.51-0.95,1.02-1.5,1.45c-0.42,0.33-0.93,0.58-0.93,1.19c0,0.6,0.49,1.09,1.09,1.09c1,0,1.95-0.85,2.73-1.37
		c1.02-0.68,1.99-1.42,2.87-2.28c1.02-0.99,2-2.04,2.75-3.25c0.38-0.61,0.7-1.25,0.93-1.93c0.15-0.46,0.18-1.25,0.82-1.25
		c1.58,0,0.16,2.89-0.04,3.59c-0.23,0.79-0.58,1.56-0.91,2.31c-0.5,1.13-1.08,2.22-1.68,3.29c-0.54,0.95-1.53,1.77-1.62,2.92
		c-0.05,0.68,0.64,1.08,1.23,0.85c1-0.4,1.26-1.57,1.6-2.48c0.29-0.78,0.65-1.53,1.1-2.23c0.28-0.43,0.62-1.14,1.13-1.34
		c0.66-0.25,1.08,0.55,1.42,0.97c0.35,0.44,0.66,0.91,0.96,1.38c0.7,1.08,1.16,2.29,1.47,3.54c0.76,3.08,0.79,6.33,0.94,9.48
		c0.15,3.06,0.37,6.13,0.37,9.2c0,3.19-0.25,6.37-0.57,9.55c-0.3,3.03-0.63,6.05-1.02,9.07c-0.36,2.81-0.83,5.6-1.36,8.38
		c-0.47,2.46-0.98,4.91-1.5,7.35c-0.41,1.94-0.85,3.87-1.34,5.78c-0.35,1.38-0.73,2.76-1.1,4.14c-0.96,3.61-2.76,6.93-4.84,10.02
		c-0.32,0.47-0.64,0.93-0.99,1.37c-0.39,0.49-0.75,0.71-0.76,1.38c-0.01,0.5,0,0.99,0,1.49c0,0.99,0,1.98,0,2.97
		c0,0.38,0.31,0.68,0.68,0.68s0.68-0.31,0.68-0.68v-3.39c0-0.32,0.26-0.59,0.59-0.59c0.32,0,0.59,0.26,0.59,0.59v0.98
		c0,0.29,0.23,0.52,0.52,0.52c0.29,0,0.52-0.23,0.52-0.52v-3.33c0-0.25,0.2-0.46,0.46-0.46c0.25,0,0.46,0.2,0.46,0.46v1.83
		c0,0.49,0.39,0.88,0.88,0.88c0.49,0,0.88-0.39,0.88-0.88v-5.84c0-0.32,0.26-0.59,0.59-0.59c0.32,0,0.59,0.26,0.59,0.59v1.54v2.15
		c0,0.58,0.47,1.04,1.04,1.04c0.58,0,1.04-0.47,1.04-1.04v-5.41v-6.55c0.16-1.67,0.37-3.34,0.66-4.99c0.35-2.05,0.45-4.28,1.39-6.17
		c0.52-1.04,1.38-1.85,2.13-2.71c0.79-0.91,1.54-1.87,2.22-2.87c1.06-1.58,1.94-3.27,2.65-5.03c0.77-1.9,1.34-3.88,1.82-5.87
		c0.49-2.06,0.88-4.15,1.22-6.25c0.33-2.07,0.62-4.14,0.85-6.22c0.23-1.99,0.41-3.98,0.54-5.98c0.12-1.8,0.2-3.6,0.23-5.4
		c0.03-1.39,0.03-2.79,0.01-4.18c-0.01-0.82-0.03-1.64-0.05-2.45c-0.04-2.18,1.93-3.92,4.04-3.91c1.1,0.01,2.15,0.5,3.02,1.14
		c0.4,0.29,1.03,1.35,1.63,0.94c0.31-0.22,0.26-0.75,0.24-1.07c-0.22-3.46,0.49-7.01,0.8-10.45
		C169.66,81.01,169.89,77.31,169.91,73.6z"/>
	<path class="st0" d="M102.41,140.15c-0.04-0.46,0.34-0.95,0.55-1.32c0.43-0.77,1.08-1.57,1.96-1.83c0.71-0.21,1.74-0.24,2.29,0.34
		c0.18,0.19,0.36,0.48,0.36,0.74c-0.01,1.25-1.19,0.88-1.94,0.86c-0.54-0.02-1.12,0.04-1.6,0.3c-0.4,0.22-0.62,0.76-0.93,1.09
		C102.8,140.62,102.45,140.62,102.41,140.15z"/>
	<path class="st0" d="M93.94,140.15c0.04-0.46-0.34-0.95-0.55-1.32c-0.43-0.77-1.08-1.57-1.96-1.83c-0.71-0.21-1.74-0.24-2.29,0.34
		c-0.18,0.19-0.36,0.48-0.36,0.74c0.01,1.25,1.19,0.88,1.94,0.86c0.54-0.02,1.12,0.04,1.6,0.3c0.4,0.22,0.62,0.76,0.93,1.09
		C93.55,140.62,93.9,140.62,93.94,140.15z"/>
	<path class="st0" d="M94.88,157.66c0.16,0.04,0.31,0.1,0.4,0.14c0.36,0.17,0.74,0.27,1.12,0.38c1.18,0.33,2.62,0.45,3.81,0.12
		c0.27-0.08,2.74-1.29,2.2-0.06c-0.25,0.56-1.11,0.83-1.63,1.03c-1.1,0.43-2.44,0.49-3.59,0.25c-0.67-0.14-1.35-0.3-1.96-0.61
		C94.79,158.67,93.62,157.35,94.88,157.66z"/>
	<path class="st0" d="M105.38,158.08c0.51-0.05,1.36,0.34,1.78,0.44c1.45,0.37,2.94,0.6,4.43,0.66c0.46,0.02,1.48-0.25,1.55,0.5
		c0.13,1.33-1.33,1.45-2.24,1.31c-1-0.15-1.91-0.58-2.83-0.96c-0.56-0.23-1.12-0.46-1.66-0.72c-0.18-0.09-1.92-0.96-1.18-1.22
		C105.28,158.1,105.33,158.09,105.38,158.08z"/>
	<path class="st0" d="M91.66,158.08c-0.51-0.05-1.36,0.34-1.78,0.44c-1.45,0.37-2.94,0.6-4.43,0.66c-0.46,0.02-1.48-0.25-1.55,0.5
		c-0.13,1.33,1.33,1.45,2.24,1.31c1-0.15,1.91-0.58,2.83-0.96c0.56-0.23,1.12-0.46,1.66-0.72c0.18-0.09,1.92-0.96,1.18-1.22
		C91.76,158.1,91.71,158.09,91.66,158.08z"/>
	<path class="st0" d="M94.31,166c0.34,0.02,0.68,0.29,0.99,0.4c1.22,0.43,2.58,0.46,3.85,0.35c0.73-0.06,1.45-0.2,2.15-0.4
		c0.86-0.24,1.85-0.89,2.02,0.45c0.08,0.6,0.06,1.16-0.44,1.58c-0.59,0.49-1.49,0.74-2.22,0.93c-1.71,0.45-3.56,0.4-5.21-0.26
		c-0.78-0.31-1.76-1.01-1.78-1.97C93.65,166.63,93.68,166,94.31,166z"/>
	<path class="st0" d="M77.31,183.89c0.3,0.04,0.61,0.09,0.66,0.11c0.6,0.15,1.17,0.44,1.72,0.72c2.01,1.04,3.95,2.15,6.07,2.96
		c2.98,1.13,6.13,1.81,9.3,2.16c3.85,0.43,7.76,0.32,11.54-0.61c4.72-1.16,9.02-3.5,13.19-5.93c0.61-0.36,1.2-0.7,1.77-1.12
		c0.43-0.32,0.78-0.38,1.05,0.2c0.1,0.21-0.94,1.44-1.09,1.63c-0.48,0.61-1.05,1.14-1.66,1.61c-1.87,1.43-4.08,2.42-6.23,3.36
		c-3.11,1.36-6.32,2.57-9.63,3.3c-3.9,0.86-7.89,0.86-11.77-0.15c-4.74-1.23-9.06-3.69-13.26-6.15c-0.53-0.31-1.15-0.59-1.64-0.97
		c-0.23-0.17-0.36-0.22-0.49-0.49C76.58,183.97,76.73,183.82,77.31,183.89z"/>
</g>
</svg>
